<svg id="visual" viewBox="0 0 2160 540" width="2160" height="540" xmlns="http://www.w3.org/2000/svg" xmlns:xlink="http://www.w3.org/1999/xlink" version="1.1"><path d="M0 158L51.5 178.2C103 198.3 206 238.7 308.8 239.8C411.7 241 514.3 203 617.2 198.7C720 194.3 823 223.7 925.8 214.3C1028.7 205 1131.3 157 1234.2 137.8C1337 118.7 1440 128.3 1542.8 136C1645.7 143.7 1748.3 149.3 1851.2 152.3C1954 155.3 2057 155.7 2108.5 155.8L2160 156L2160 541L2108.5 541C2057 541 1954 541 1851.2 541C1748.3 541 1645.7 541 1542.8 541C1440 541 1337 541 1234.2 541C1131.3 541 1028.7 541 925.8 541C823 541 720 541 617.2 541C514.3 541 411.7 541 308.8 541C206 541 103 541 51.5 541L0 541Z" fill="#2563eb"></path><path d="M0 237L51.5 237.8C103 238.7 206 240.3 308.8 253.8C411.7 267.3 514.3 292.7 617.2 296.3C720 300 823 282 925.8 272.7C1028.7 263.3 1131.3 262.7 1234.2 278.5C1337 294.3 1440 326.7 1542.8 319C1645.7 311.3 1748.3 263.7 1851.2 247.8C1954 232 2057 248 2108.5 256L2160 264L2160 541L2108.5 541C2057 541 1954 541 1851.2 541C1748.3 541 1645.7 541 1542.8 541C1440 541 1337 541 1234.2 541C1131.3 541 1028.7 541 925.8 541C823 541 720 541 617.2 541C514.3 541 411.7 541 308.8 541C206 541 103 541 51.5 541L0 541Z" fill="#3846bc"></path><path d="M0 315L51.5 311.2C103 307.3 206 299.7 308.8 315.2C411.7 330.7 514.3 369.3 617.2 391.2C720 413 823 418 925.8 406.3C1028.7 394.7 1131.3 366.3 1234.2 348.5C1337 330.7 1440 323.3 1542.8 317C1645.7 310.7 1748.3 305.3 1851.2 313.3C1954 321.3 2057 342.7 2108.5 353.3L2160 364L2160 541L2108.5 541C2057 541 1954 541 1851.2 541C1748.3 541 1645.7 541 1542.8 541C1440 541 1337 541 1234.2 541C1131.3 541 1028.7 541 925.8 541C823 541 720 541 617.2 541C514.3 541 411.7 541 308.8 541C206 541 103 541 51.5 541L0 541Z" fill="#372b8f"></path><path d="M0 384L51.5 391.5C103 399 206 414 308.8 426.7C411.7 439.3 514.3 449.7 617.2 457C720 464.3 823 468.7 925.8 470.3C1028.7 472 1131.3 471 1234.2 467.3C1337 463.7 1440 457.3 1542.8 458.7C1645.7 460 1748.3 469 1851.2 463.7C1954 458.3 2057 438.7 2108.5 428.8L2160 419L2160 541L2108.5 541C2057 541 1954 541 1851.2 541C1748.3 541 1645.7 541 1542.8 541C1440 541 1337 541 1234.2 541C1131.3 541 1028.7 541 925.8 541C823 541 720 541 617.2 541C514.3 541 411.7 541 308.8 541C206 541 103 541 51.5 541L0 541Z" fill="#2e1065"></path></svg>